<svg xmlns="http://www.w3.org/2000/svg" xmlns:xlink="http://www.w3.org/1999/xlink" xmlns:lucid="lucid" width="1829.03" height="1029.3"><g transform="translate(0 0)" lucid:page-tab-id="0_0"><path d="M0 0h1829.03v1029.3H0z" fill="#fff"/><path d="M453.15 76c0-4.42 3.58-8 8-8h836.75c4.4 0 8 3.58 8 8v25.16c0 4.4-3.6 8-8 8H461.15c-4.42 0-8-3.6-8-8z" stroke="#000" stroke-opacity="0" stroke-width="2" fill="#fff" fill-opacity="0"/><use xlink:href="#a" transform="matrix(1,0,0,1,457.1465527853429,71.99999999994924) translate(252.88901234567902 25.782777777777778)"/><use xlink:href="#b" transform="matrix(1,0,0,1,457.1465527853429,71.99999999994924) translate(316.84209876543207 25.782777777777778)"/><use xlink:href="#c" transform="matrix(1,0,0,1,457.1465527853429,71.99999999994924) translate(399.6606172839506 25.782777777777778)"/><use xlink:href="#d" transform="matrix(1,0,0,1,457.1465527853429,71.99999999994924) translate(415.6124691358025 25.782777777777778)"/><use xlink:href="#e" transform="matrix(1,0,0,1,457.1465527853429,71.99999999994924) translate(485.31987654320983 25.782777777777778)"/><path d="M628.64 107.8h505.86M628.66 107.8h-1.02M1134.47 107.8h1.03" stroke="#a9afb8" stroke-width="2" fill="none"/><path d="M453.15 117.16c0-4.42 3.58-8 8-8h837.7c4.42 0 8 3.58 8 8V120c0 4.42-3.58 8-8 8h-837.7c-4.42 0-8-3.58-8-8z" stroke="#000" stroke-opacity="0" stroke-width="2" fill="#fff" fill-opacity="0"/><use xlink:href="#f" transform="matrix(1,0,0,1,457.1465527853434,113.15522395684805) translate(311.0779012345679 14.917037037037037)"/><use xlink:href="#g" transform="matrix(1,0,0,1,457.1465527853434,113.15522395684805) translate(353.3551646090535 14.917037037037037)"/><use xlink:href="#h" transform="matrix(1,0,0,1,457.1465527853434,113.15522395684805) translate(411.0137037037037 14.917037037037037)"/><use xlink:href="#i" transform="matrix(1,0,0,1,457.1465527853434,113.15522395684805) translate(423.4631893004115 14.917037037037037)"/><use xlink:href="#j" transform="matrix(1,0,0,1,457.1465527853434,113.15522395684805) translate(482.0565020576131 14.917037037037037)"/><use xlink:href="#k" transform="matrix(1,0,0,1,457.1465527853434,113.15522395684805) translate(507.550329218107 14.917037037037037)"/><path d="M280 725c0-2.76 2.24-5 5-5h324.1c2.77 0 5 2.24 5 5v150c0 2.76-2.23 5-5 5H285c-2.76 0-5-2.24-5-5z" fill="#fff"/><path d="M280 680h334.1v40H280z" fill="#ccc"/><path d="M280 685c0-2.76 2.24-5 5-5h324.1c2.77 0 5 2.24 5 5v190c0 2.76-2.23 5-5 5H285c-2.76 0-5-2.24-5-5zM280 720h334.1M447.05 720v160" stroke="#333" fill="none"/><use xlink:href="#l" transform="matrix(1,0,0,1,290,680) translate(0 23.6)"/><use xlink:href="#m" transform="matrix(1,0,0,1,285,722.5) translate(0 17.1)"/><use xlink:href="#n" transform="matrix(1,0,0,1,452.05196937327105,722.5) translate(0 17.1)"/><use xlink:href="#o" transform="matrix(1,0,0,1,452.05196937327105,722.5) translate(29 17.1)"/><use xlink:href="#p" transform="matrix(1,0,0,1,452.05196937327105,722.5) translate(39.95 17.1)"/><use xlink:href="#q" transform="matrix(1,0,0,1,285,754.5) translate(0 17.1)"/><use xlink:href="#r" transform="matrix(1,0,0,1,452.05196937327105,754.5) translate(0 17.1)"/><use xlink:href="#s" transform="matrix(1,0,0,1,285,786.5) translate(0 17.1)"/><use xlink:href="#t" transform="matrix(1,0,0,1,452.05196937327105,786.5) translate(0 17.1)"/><use xlink:href="#u" transform="matrix(1,0,0,1,285,818.5) translate(0 17.1)"/><use xlink:href="#v" transform="matrix(1,0,0,1,452.05196937327105,818.5) translate(0 17.1)"/><use xlink:href="#w" transform="matrix(1,0,0,1,285,850.5) translate(0 17.1)"/><use xlink:href="#r" transform="matrix(1,0,0,1,452.05196937327105,850.5) translate(0 17.1)"/><path d="M860 225c0-2.76 2.24-5 5-5h270c2.76 0 5 2.24 5 5v150c0 2.76-2.24 5-5 5H865c-2.76 0-5-2.24-5-5z" fill="#fff"/><path d="M860 180h280v40H860z" fill="#ccc"/><path d="M860 185c0-2.76 2.24-5 5-5h270c2.76 0 5 2.24 5 5v190c0 2.76-2.24 5-5 5H865c-2.76 0-5-2.24-5-5zM860 220h280M1000 220v160" stroke="#333" fill="none"/><use xlink:href="#x" transform="matrix(1,0,0,1,870,180) translate(0 23.6)"/><use xlink:href="#y" transform="matrix(1,0,0,1,865,222.5) translate(0 17.1)"/><use xlink:href="#z" transform="matrix(1,0,0,1,1005,222.5) translate(0 17.1)"/><use xlink:href="#A" transform="matrix(1,0,0,1,1005,222.5) translate(29 17.1)"/><use xlink:href="#B" transform="matrix(1,0,0,1,1005,222.5) translate(39.95 17.1)"/><use xlink:href="#C" transform="matrix(1,0,0,1,865,254.5) translate(0 17.1)"/><use xlink:href="#t" transform="matrix(1,0,0,1,1005,254.5) translate(0 17.1)"/><use xlink:href="#D" transform="matrix(1,0,0,1,865,286.5) translate(0 17.1)"/><use xlink:href="#E" transform="matrix(1,0,0,1,1005,286.5) translate(0 17.1)"/><use xlink:href="#F" transform="matrix(1,0,0,1,865,318.5) translate(0 17.1)"/><use xlink:href="#G" transform="matrix(1,0,0,1,1005,318.5) translate(0 17.1)"/><use xlink:href="#H" transform="matrix(1,0,0,1,865,350.5) translate(0 17.1)"/><use xlink:href="#I" transform="matrix(1,0,0,1,1005,350.5) translate(0 17.1)"/><use xlink:href="#J" transform="matrix(1,0,0,1,1005,350.5) translate(27.950000000000003 17.1)"/><use xlink:href="#K" transform="matrix(1,0,0,1,1005,350.5) translate(38.900000000000006 17.1)"/><path d="M307.05 229c0-2.76 2.24-5 5-5h270c2.76 0 5 2.24 5 5v54c0 2.76-2.24 5-5 5h-270c-2.76 0-5-2.24-5-5z" fill="#fff"/><path d="M307.05 184h280v40h-280z" fill="#ccc"/><path d="M307.05 189c0-2.76 2.24-5 5-5h270c2.76 0 5 2.24 5 5v94c0 2.76-2.24 5-5 5h-270c-2.76 0-5-2.24-5-5zM307.05 224h280M447.05 224v64" stroke="#333" fill="none"/><use xlink:href="#L" transform="matrix(1,0,0,1,317.05196937327105,184.00000000009106) translate(0 23.6)"/><use xlink:href="#M" transform="matrix(1,0,0,1,312.05196937327105,226.50000000009106) translate(0 17.1)"/><use xlink:href="#N" transform="matrix(1,0,0,1,452.05196937327105,226.50000000009106) translate(0 17.1)"/><use xlink:href="#O" transform="matrix(1,0,0,1,452.05196937327105,226.50000000009106) translate(29 17.1)"/><use xlink:href="#P" transform="matrix(1,0,0,1,452.05196937327105,226.50000000009106) translate(39.95 17.1)"/><use xlink:href="#Q" transform="matrix(1,0,0,1,312.05196937327105,258.50000000009106) translate(0 17.1)"/><use xlink:href="#R" transform="matrix(1,0,0,1,452.05196937327105,258.50000000009106) translate(0 17.1)"/><path d="M1180 725c0-2.76 2.24-5 5-5h324.1c2.77 0 5 2.24 5 5v150c0 2.76-2.23 5-5 5H1185c-2.76 0-5-2.24-5-5z" fill="#fff"/><path d="M1180 680h334.1v40H1180z" fill="#ccc"/><path d="M1180 685c0-2.76 2.24-5 5-5h324.1c2.77 0 5 2.24 5 5v190c0 2.76-2.23 5-5 5H1185c-2.76 0-5-2.24-5-5zM1180 720h334.1M1347.05 720v160" stroke="#333" fill="none"/><use xlink:href="#S" transform="matrix(1,0,0,1,1190,680) translate(0 23.6)"/><use xlink:href="#T" transform="matrix(1,0,0,1,1185,722.5) translate(0 17.1)"/><use xlink:href="#U" transform="matrix(1,0,0,1,1352.051969373271,722.5) translate(0 17.1)"/><use xlink:href="#J" transform="matrix(1,0,0,1,1352.051969373271,722.5) translate(29 17.1)"/><use xlink:href="#K" transform="matrix(1,0,0,1,1352.051969373271,722.5) translate(39.95 17.1)"/><use xlink:href="#V" transform="matrix(1,0,0,1,1185,754.5) translate(0 17.1)"/><use xlink:href="#t" transform="matrix(1,0,0,1,1352.051969373271,754.5) translate(0 17.1)"/><use xlink:href="#W" transform="matrix(1,0,0,1,1185,786.5) translate(0 17.1)"/><use xlink:href="#t" transform="matrix(1,0,0,1,1352.051969373271,786.5) translate(0 17.1)"/><use xlink:href="#X" transform="matrix(1,0,0,1,1185,818.5) translate(0 17.1)"/><use xlink:href="#Y" transform="matrix(1,0,0,1,1352.051969373271,818.5) translate(0 17.1)"/><use xlink:href="#Z" transform="matrix(1,0,0,1,1185,850.5) translate(0 17.1)"/><use xlink:href="#Y" transform="matrix(1,0,0,1,1352.051969373271,850.5) translate(0 17.1)"/><path d="M700 485c0-2.76 2.24-5 5-5h264.1c2.77 0 5 2.24 5 5v86c0 2.76-2.23 5-5 5H705c-2.76 0-5-2.24-5-5z" fill="#fff"/><path d="M700 440h274.1v40H700z" fill="#ccc"/><path d="M700 445c0-2.76 2.24-5 5-5h264.1c2.77 0 5 2.24 5 5v126c0 2.76-2.23 5-5 5H705c-2.76 0-5-2.24-5-5zM700 480h274.1M837.05 480v96" stroke="#333" fill="none"/><use xlink:href="#aa" transform="matrix(1,0,0,1,710,440) translate(0 23.6)"/><use xlink:href="#ab" transform="matrix(1,0,0,1,705,482.5) translate(0 17.1)"/><use xlink:href="#N" transform="matrix(1,0,0,1,842.051969373271,482.5) translate(0 17.1)"/><use xlink:href="#O" transform="matrix(1,0,0,1,842.051969373271,482.5) translate(29 17.1)"/><use xlink:href="#P" transform="matrix(1,0,0,1,842.051969373271,482.5) translate(39.95 17.1)"/><use xlink:href="#M" transform="matrix(1,0,0,1,705,514.5) translate(0 17.1)"/><use xlink:href="#ac" transform="matrix(1,0,0,1,842.051969373271,514.5) translate(0 17.1)"/><use xlink:href="#O" transform="matrix(1,0,0,1,842.051969373271,514.5) translate(27.950000000000003 17.1)"/><use xlink:href="#P" transform="matrix(1,0,0,1,842.051969373271,514.5) translate(38.900000000000006 17.1)"/><use xlink:href="#ad" transform="matrix(1,0,0,1,705,546.5) translate(0 17.1)"/><use xlink:href="#ac" transform="matrix(1,0,0,1,842.051969373271,546.5) translate(0 17.1)"/><use xlink:href="#O" transform="matrix(1,0,0,1,842.051969373271,546.5) translate(27.950000000000003 17.1)"/><use xlink:href="#P" transform="matrix(1,0,0,1,842.051969373271,546.5) translate(38.900000000000006 17.1)"/><path d="M757.05 745c0-2.76 2.24-5 5-5h270c2.76 0 5 2.24 5 5v86c0 2.76-2.24 5-5 5h-270c-2.76 0-5-2.24-5-5z" fill="#fff"/><path d="M757.05 700h280v40h-280z" fill="#ccc"/><path d="M757.05 705c0-2.76 2.24-5 5-5h270c2.76 0 5 2.24 5 5v126c0 2.76-2.24 5-5 5h-270c-2.76 0-5-2.24-5-5zM757.05 740h280M897.05 740v96" stroke="#333" fill="none"/><use xlink:href="#ae" transform="matrix(1,0,0,1,767.051969373271,700) translate(0 23.6)"/><use xlink:href="#af" transform="matrix(1,0,0,1,762.051969373271,742.5) translate(0 17.1)"/><use xlink:href="#N" transform="matrix(1,0,0,1,902.051969373271,742.5) translate(0 17.1)"/><use xlink:href="#O" transform="matrix(1,0,0,1,902.051969373271,742.5) translate(29 17.1)"/><use xlink:href="#P" transform="matrix(1,0,0,1,902.051969373271,742.5) translate(39.95 17.1)"/><use xlink:href="#ag" transform="matrix(1,0,0,1,762.051969373271,774.5) translate(0 17.1)"/><use xlink:href="#ac" transform="matrix(1,0,0,1,902.051969373271,774.5) translate(0 17.1)"/><use xlink:href="#O" transform="matrix(1,0,0,1,902.051969373271,774.5) translate(27.950000000000003 17.1)"/><use xlink:href="#P" transform="matrix(1,0,0,1,902.051969373271,774.5) translate(38.900000000000006 17.1)"/><use xlink:href="#ah" transform="matrix(1,0,0,1,762.051969373271,806.5) translate(0 17.1)"/><use xlink:href="#ac" transform="matrix(1,0,0,1,902.051969373271,806.5) translate(0 17.1)"/><use xlink:href="#O" transform="matrix(1,0,0,1,902.051969373271,806.5) translate(27.950000000000003 17.1)"/><use xlink:href="#P" transform="matrix(1,0,0,1,902.051969373271,806.5) translate(38.900000000000006 17.1)"/><path d="M607.55 240H820" stroke="#333" fill="none"/><path d="M607.55 250v-20M587.55 240h20" stroke="#333" fill="#fff"/><path d="M859.28 250l-20-10 20-10" stroke="#333" fill="#fff" fill-opacity="0"/><path d="M859.28 240h-20M839.28 240c0 5.54-4.48 10-10 10-5.53 0-10-4.46-10-10 0-5.5 4.47-10 10-10 5.52 0 10 4.5 10 10" stroke="#333" fill="#fff"/><path d="M994.6 495.96c2.98 0 5.4-2.42 5.4-5.4V400.5" stroke="#333" fill="none"/><path d="M994.6 505.96v-20M974.6 495.96h20" stroke="#333" fill="#fff"/><path d="M1010 380.72l-10 20-10-20" stroke="#333" fill="#fff" fill-opacity="0"/><path d="M1000 380.72v20M990 400.72h20" stroke="#333" fill="#fff"/><path d="M634.6 767.96h82.45" stroke="#333" fill="none"/><path d="M634.6 777.96v-20M614.6 767.96h20" stroke="#333" fill="#fff"/><path d="M756.33 777.96l-20-10 20-10" stroke="#333" fill="#fff" fill-opacity="0"/><path d="M756.33 767.96h-20M736.33 767.96c0 5.53-4.48 10-10 10s-10-4.47-10-10c0-5.52 4.48-10 10-10s10 4.48 10 10" stroke="#333" fill="#fff"/><path d="M1159.5 767.96h-101.95" stroke="#333" fill="none"/><path d="M1159.5 757.96v20M1179.5 767.96h-20" stroke="#333" fill="#fff"/><path d="M1037.78 757.96l20 10-20 10" stroke="#333" fill="#fff" fill-opacity="0"/><path d="M1037.78 767.96h20M1057.78 777.96v-20" stroke="#333" fill="#fff"/><path d="M679.5 495.96H459.05c-6.63 0-12 5.37-12 12V659.5" stroke="#333" fill="none"/><path d="M679.5 485.96v20M699.5 495.96h-20" stroke="#333" fill="#fff"/><path d="M437.05 679.28l10-20 10 20" stroke="#333" fill="#fff" fill-opacity="0"/><path d="M447.05 679.28v-20M457.05 659.28h-20" stroke="#333" fill="#fff"/><defs><path fill="#a9afb8" d="M24-248c120-7 223 5 221 122C244-46 201 0 124 0H24v-248zM76-40c74 7 117-18 117-86 0-67-45-88-117-82v168" id="ai"/><path fill="#a9afb8" d="M133-34C117-15 103 5 69 4 32 3 11-16 11-54c-1-60 55-63 116-61 1-26-3-47-28-47-18 1-26 9-28 27l-52-2c7-38 36-58 82-57s74 22 75 68l1 82c-1 14 12 18 25 15v27c-30 8-71 5-69-32zm-48 3c29 0 43-24 42-57-32 0-66-3-65 30 0 17 8 27 23 27" id="aj"/><path fill="#a9afb8" d="M115-3C79 11 28 4 28-45v-112H4v-33h27l15-45h31v45h36v33H77v99c-1 23 16 31 38 25v30" id="ak"/><g id="a"><use transform="matrix(0.0728395061728395,0,0,0.0728395061728395,0,0)" xlink:href="#ai"/><use transform="matrix(0.0728395061728395,0,0,0.0728395061728395,18.86543209876543,0)" xlink:href="#aj"/><use transform="matrix(0.0728395061728395,0,0,0.0728395061728395,33.43333333333333,0)" xlink:href="#ak"/><use transform="matrix(0.0728395061728395,0,0,0.0728395061728395,42.10123456790124,0)" xlink:href="#aj"/></g><path fill="#a9afb8" d="M230 0l2-204L168 0h-37L68-204 70 0H24v-248h70l56 185 57-185h69V0h-46" id="al"/><path fill="#a9afb8" d="M110-194c64 0 96 36 96 99 0 64-35 99-97 99-61 0-95-36-95-99 0-62 34-99 96-99zm-1 164c35 0 45-28 45-65 0-40-10-65-43-65-34 0-45 26-45 65 0 36 10 65 43 65" id="am"/><path fill="#a9afb8" d="M88-194c31-1 46 15 58 34l-1-101h50l1 261h-48c-2-10 0-23-3-31C134-8 116 4 84 4 32 4 16-41 15-95c0-56 19-97 73-99zm17 164c33 0 40-30 41-66 1-37-9-64-41-64s-38 30-39 65c0 43 13 65 39 65" id="an"/><path fill="#a9afb8" d="M185-48c-13 30-37 53-82 52C43 2 14-33 14-96s30-98 90-98c62 0 83 45 84 108H66c0 31 8 55 39 56 18 0 30-7 34-22zm-45-69c5-46-57-63-70-21-2 6-4 13-4 21h74" id="ao"/><path fill="#a9afb8" d="M25 0v-261h50V0H25" id="ap"/><g id="b"><use transform="matrix(0.0728395061728395,0,0,0.0728395061728395,0,0)" xlink:href="#al"/><use transform="matrix(0.0728395061728395,0,0,0.0728395061728395,21.77901234567901,0)" xlink:href="#am"/><use transform="matrix(0.0728395061728395,0,0,0.0728395061728395,37.73086419753086,0)" xlink:href="#an"/><use transform="matrix(0.0728395061728395,0,0,0.0728395061728395,53.68271604938271,0)" xlink:href="#ao"/><use transform="matrix(0.0728395061728395,0,0,0.0728395061728395,68.25061728395062,0)" xlink:href="#ap"/></g><path fill="#a9afb8" d="M14-72v-43h91v43H14" id="aq"/><use transform="matrix(0.0728395061728395,0,0,0.0728395061728395,0,0)" xlink:href="#aq" id="c"/><path fill="#a9afb8" d="M195-6C206 82 75 100 31 46c-4-6-6-13-8-21l49-6c3 16 16 24 34 25 40 0 42-37 40-79-11 22-30 35-61 35-53 0-70-43-70-97 0-56 18-96 73-97 30 0 46 14 59 34l2-30h47zm-90-29c32 0 41-27 41-63 0-35-9-62-40-62-32 0-39 29-40 63 0 36 9 62 39 62" id="ar"/><path fill="#a9afb8" d="M137-138c1-29-70-34-71-4 15 46 118 7 119 86 1 83-164 76-172 9l43-7c4 19 20 25 44 25 33 8 57-30 24-41C81-84 22-81 20-136c-2-80 154-74 161-7" id="as"/><g id="d"><use transform="matrix(0.0728395061728395,0,0,0.0728395061728395,0,0)" xlink:href="#an"/><use transform="matrix(0.0728395061728395,0,0,0.0728395061728395,15.95185185185185,0)" xlink:href="#am"/><use transform="matrix(0.0728395061728395,0,0,0.0728395061728395,31.9037037037037,0)" xlink:href="#ar"/><use transform="matrix(0.0728395061728395,0,0,0.0728395061728395,47.855555555555554,0)" xlink:href="#as"/></g><path fill="#a9afb8" d="M135-194c52 0 70 43 70 98 0 56-19 99-73 100-30 1-46-15-58-35L72 0H24l1-261h50v104c11-23 29-37 60-37zM114-30c31 0 40-27 40-66 0-37-7-63-39-63s-41 28-41 65c0 36 8 64 40 64" id="at"/><g id="e"><use transform="matrix(0.0728395061728395,0,0,0.0728395061728395,0,0)" xlink:href="#an"/><use transform="matrix(0.0728395061728395,0,0,0.0728395061728395,15.95185185185185,0)" xlink:href="#aj"/><use transform="matrix(0.0728395061728395,0,0,0.0728395061728395,30.51975308641975,0)" xlink:href="#ak"/><use transform="matrix(0.0728395061728395,0,0,0.0728395061728395,39.187654320987654,0)" xlink:href="#aj"/><use transform="matrix(0.0728395061728395,0,0,0.0728395061728395,53.75555555555555,0)" xlink:href="#at"/><use transform="matrix(0.0728395061728395,0,0,0.0728395061728395,69.7074074074074,0)" xlink:href="#aj"/><use transform="matrix(0.0728395061728395,0,0,0.0728395061728395,84.2753086419753,0)" xlink:href="#as"/><use transform="matrix(0.0728395061728395,0,0,0.0728395061728395,98.84320987654318,0)" xlink:href="#ao"/></g><path fill="#a9afb8" d="M127-220V0H93v-220H8v-28h204v28h-85" id="au"/><path fill="#a9afb8" d="M206 0h-36l-40-164L89 0H53L-1-190h32L70-26l43-164h34l41 164 42-164h31" id="av"/><path fill="#a9afb8" d="M24-231v-30h32v30H24zM24 0v-190h32V0H24" id="aw"/><path fill="#a9afb8" d="M24 0v-261h32V0H24" id="ax"/><path fill="#a9afb8" d="M141-36C126-15 110 5 73 4 37 3 15-17 15-53c-1-64 63-63 125-63 3-35-9-54-41-54-24 1-41 7-42 31l-33-3c5-37 33-52 76-52 45 0 72 20 72 64v82c-1 20 7 32 28 27v20c-31 9-61-2-59-35zM48-53c0 20 12 33 32 33 41-3 63-29 60-74-43 2-92-5-92 41" id="ay"/><g id="f"><use transform="matrix(0.04248971193415638,0,0,0.04248971193415638,0,0)" xlink:href="#au"/><use transform="matrix(0.04248971193415638,0,0,0.04248971193415638,8.455452674897119,0)" xlink:href="#av"/><use transform="matrix(0.04248971193415638,0,0,0.04248971193415638,19.46028806584362,0)" xlink:href="#aw"/><use transform="matrix(0.04248971193415638,0,0,0.04248971193415638,22.816975308641975,0)" xlink:href="#ax"/><use transform="matrix(0.04248971193415638,0,0,0.04248971193415638,26.173662551440326,0)" xlink:href="#ax"/><use transform="matrix(0.04248971193415638,0,0,0.04248971193415638,29.53034979423869,0)" xlink:href="#ay"/></g><path fill="#a9afb8" d="M143 4C61 4 22-44 18-125c-5-107 100-154 193-111 17 8 29 25 37 43l-32 9c-13-25-37-40-76-40-61 0-88 39-88 99 0 61 29 100 91 101 35 0 62-11 79-27v-45h-74v-28h105v86C228-13 192 4 143 4" id="az"/><path fill="#a9afb8" d="M100-194c63 0 86 42 84 106H49c0 40 14 67 53 68 26 1 43-12 49-29l28 8c-11 28-37 45-77 45C44 4 14-33 15-96c1-61 26-98 85-98zm52 81c6-60-76-77-97-28-3 7-6 17-6 28h103" id="aA"/><path fill="#a9afb8" d="M114-163C36-179 61-72 57 0H25l-1-190h30c1 12-1 29 2 39 6-27 23-49 58-41v29" id="aB"/><path fill="#a9afb8" d="M117-194c89-4 53 116 60 194h-32v-121c0-31-8-49-39-48C34-167 62-67 57 0H25l-1-190h30c1 10-1 24 2 32 11-22 29-35 61-36" id="aC"/><path fill="#a9afb8" d="M177-190C167-65 218 103 67 71c-23-6-38-20-44-43l32-5c15 47 100 32 89-28v-30C133-14 115 1 83 1 29 1 15-40 15-95c0-56 16-97 71-98 29-1 48 16 59 35 1-10 0-23 2-32h30zM94-22c36 0 50-32 50-73 0-42-14-75-50-75-39 0-46 34-46 75s6 73 46 73" id="aD"/><g id="g"><use transform="matrix(0.04248971193415638,0,0,0.04248971193415638,0,0)" xlink:href="#az"/><use transform="matrix(0.04248971193415638,0,0,0.04248971193415638,11.897119341563785,0)" xlink:href="#aA"/><use transform="matrix(0.04248971193415638,0,0,0.04248971193415638,20.39506172839506,0)" xlink:href="#aB"/><use transform="matrix(0.04248971193415638,0,0,0.04248971193415638,25.45133744855967,0)" xlink:href="#ax"/><use transform="matrix(0.04248971193415638,0,0,0.04248971193415638,28.808024691358025,0)" xlink:href="#aw"/><use transform="matrix(0.04248971193415638,0,0,0.04248971193415638,32.16471193415638,0)" xlink:href="#aC"/><use transform="matrix(0.04248971193415638,0,0,0.04248971193415638,40.662654320987656,0)" xlink:href="#aD"/></g><path fill="#a9afb8" d="M32 76v-337h29V76H32" id="aE"/><use transform="matrix(0.04248971193415638,0,0,0.04248971193415638,0,0)" xlink:href="#aE" id="h"/><path fill="#a9afb8" d="M153-248C145-148 188 4 80 4 36 3 13-21 6-62l32-5c4 25 16 42 43 43 27 0 39-20 39-49v-147H72v-28h81" id="aF"/><path fill="#a9afb8" d="M84 4C-5 8 30-112 23-190h32v120c0 31 7 50 39 49 72-2 45-101 50-169h31l1 190h-30c-1-10 1-25-2-33-11 22-28 36-60 37" id="aG"/><path fill="#a9afb8" d="M179-190L93 31C79 59 56 82 12 73V49c39 6 53-20 64-50L1-190h34L92-34l54-156h33" id="aH"/><g id="i"><use transform="matrix(0.04248971193415638,0,0,0.04248971193415638,0,0)" xlink:href="#aF"/><use transform="matrix(0.04248971193415638,0,0,0.04248971193415638,7.648148148148148,0)" xlink:href="#ay"/><use transform="matrix(0.04248971193415638,0,0,0.04248971193415638,16.14609053497942,0)" xlink:href="#aC"/><use transform="matrix(0.04248971193415638,0,0,0.04248971193415638,24.644032921810698,0)" xlink:href="#aG"/><use transform="matrix(0.04248971193415638,0,0,0.04248971193415638,33.141975308641975,0)" xlink:href="#ay"/><use transform="matrix(0.04248971193415638,0,0,0.04248971193415638,41.63991769547325,0)" xlink:href="#aB"/><use transform="matrix(0.04248971193415638,0,0,0.04248971193415638,46.69619341563786,0)" xlink:href="#aH"/></g><path fill="#a9afb8" d="M27 0v-27h64v-190l-56 39v-29l58-41h29v221h61V0H27" id="aI"/><path fill="#a9afb8" d="M101-251c82-7 93 87 43 132L82-64C71-53 59-42 53-27h129V0H18c2-99 128-94 128-182 0-28-16-43-45-43s-46 15-49 41l-32-3c6-41 34-60 81-64" id="aJ"/><path fill="#a9afb8" d="M68-38c1 34 0 65-14 84H32c9-13 17-26 17-46H33v-38h35" id="aK"/><g id="j"><use transform="matrix(0.04248971193415638,0,0,0.04248971193415638,0,0)" xlink:href="#aI"/><use transform="matrix(0.04248971193415638,0,0,0.04248971193415638,8.497942386831275,0)" xlink:href="#aJ"/><use transform="matrix(0.04248971193415638,0,0,0.04248971193415638,16.99588477366255,0)" xlink:href="#aK"/></g><path fill="#a9afb8" d="M101-251c68 0 85 55 85 127S166 4 100 4C33 4 14-52 14-124c0-73 17-127 87-127zm-1 229c47 0 54-49 54-102s-4-102-53-102c-51 0-55 48-55 102 0 53 5 102 54 102" id="aL"/><g id="k"><use transform="matrix(0.04248971193415638,0,0,0.04248971193415638,0,0)" xlink:href="#aJ"/><use transform="matrix(0.04248971193415638,0,0,0.04248971193415638,8.497942386831275,0)" xlink:href="#aL"/><use transform="matrix(0.04248971193415638,0,0,0.04248971193415638,16.99588477366255,0)" xlink:href="#aJ"/><use transform="matrix(0.04248971193415638,0,0,0.04248971193415638,25.493827160493822,0)" xlink:href="#aJ"/></g><path fill="#333" d="M133-28C103 26-5 8 13-77c13-62 24-115 90-117 29-1 46 15 56 35l19-102h32L160 0h-30zM45-64c-2 27 10 43 35 43 54-1 69-50 69-103 0-29-15-46-42-46-53-1-58 58-62 106" id="aM"/><path fill="#333" d="M66-151c12-25 30-51 66-40l-6 26C45-176 58-65 38 0H6l36-190h30" id="aN"/><path fill="#333" d="M67 3c-93-2-31-127-26-193h32L48-50c-3 39 53 32 70 12 30-34 30-101 43-152h32L157 0h-30c1-10 6-24 4-33-14 20-29 37-64 36" id="aO"/><path fill="#333" d="M103-194c29 0 47 14 56 36 2-11 5-23 8-32h30L160-5C157 61 82 97 21 62 9 55 4 45 1 30l28-7c7 42 83 31 92-3 4-16 9-38 13-55-13 20-29 36-62 36-40 0-60-25-60-64 0-71 23-131 91-131zm4 24c-53 0-58 54-61 104-2 27 10 44 36 44 49 0 65-50 67-102 1-29-15-46-42-46" id="aP"/><path fill="#333" d="M-28 44V31h207v13H-28" id="aQ"/><path fill="#333" d="M51-54c-9 22 5 41 31 30L79-1C43 14 10-4 19-52l22-115H19l5-23h22l19-43h21l-9 43h35l-4 23H73" id="aR"/><g id="l"><use transform="matrix(0.05,0,0,0.05,0,0)" xlink:href="#aM"/><use transform="matrix(0.05,0,0,0.05,10,0)" xlink:href="#aN"/><use transform="matrix(0.05,0,0,0.05,15.949999999999998,0)" xlink:href="#aO"/><use transform="matrix(0.05,0,0,0.05,25.950000000000003,0)" xlink:href="#aP"/><use transform="matrix(0.05,0,0,0.05,35.95,0)" xlink:href="#aQ"/><use transform="matrix(0.05,0,0,0.05,45.95,0)" xlink:href="#aR"/></g><path fill="#333" d="M14 0l48-248h34L48 0H14" id="aS"/><path fill="#333" d="M248-139C247-14 144 9 11 0l48-248c105-6 190 8 189 109zm-34 0c1-70-52-87-126-82L50-27c98 7 163-21 164-112" id="aT"/><g id="m"><use transform="matrix(0.05,0,0,0.05,0,0)" xlink:href="#aM"/><use transform="matrix(0.05,0,0,0.05,10,0)" xlink:href="#aN"/><use transform="matrix(0.05,0,0,0.05,15.949999999999998,0)" xlink:href="#aO"/><use transform="matrix(0.05,0,0,0.05,25.950000000000003,0)" xlink:href="#aP"/><use transform="matrix(0.05,0,0,0.05,35.95,0)" xlink:href="#aQ"/><use transform="matrix(0.05,0,0,0.05,45.95,0)" xlink:href="#aS"/><use transform="matrix(0.05,0,0,0.05,50.95,0)" xlink:href="#aT"/></g><path d="M238-179c0 84-86 86-175 82L45 0H11l48-248c82 0 179-12 179 69zm-34 1c0-53-64-42-116-43l-19 98c63 0 135 9 135-55" id="aU"/><path d="M180 0L97-118 63-96 45 0H11l48-248h34L69-126c44-43 94-81 141-122h43L121-137 219 0h-39" id="aV"/><g id="n"><use transform="matrix(0.05,0,0,0.05,0,0)" xlink:href="#aU"/><use transform="matrix(0.05,0,0,0.05,12,0)" xlink:href="#aV"/></g><path d="M18-82l6-28h88l-6 28H18" id="aW"/><use transform="matrix(0.05,0,0,0.05,0,0)" xlink:href="#aW" id="o"/><path d="M50-231l6-30h32l-6 30H50zM6 0l37-190h31L37 0H6" id="aX"/><path d="M67-158c22-48 132-52 116 29L158 0h-32l25-140c3-38-53-32-70-12C52-117 51-52 38 0H6l36-190h30" id="aY"/><path d="M51-54c-9 22 5 41 31 30L79-1C43 14 10-4 19-52l22-115H19l5-23h22l19-43h21l-9 43h35l-4 23H73" id="aZ"/><path d="M111-194c62-3 86 47 72 106H45c-7 38 6 69 45 68 27-1 43-14 53-32l24 11C152-15 129 4 87 4 38 3 12-23 12-71c0-70 32-119 99-123zm44 81c14-66-71-72-95-28-4 8-8 17-11 28h106" id="ba"/><path d="M103-194c29 0 47 14 56 36 2-11 5-23 8-32h30L160-5C157 61 82 97 21 62 9 55 4 45 1 30l28-7c7 42 83 31 92-3 4-16 9-38 13-55-13 20-29 36-62 36-40 0-60-25-60-64 0-71 23-131 91-131zm4 24c-53 0-58 54-61 104-2 27 10 44 36 44 49 0 65-50 67-102 1-29-15-46-42-46" id="bb"/><path d="M66-151c12-25 30-51 66-40l-6 26C45-176 58-65 38 0H6l36-190h30" id="bc"/><g id="p"><use transform="matrix(0.05,0,0,0.05,0,0)" xlink:href="#aX"/><use transform="matrix(0.05,0,0,0.05,3.95,0)" xlink:href="#aY"/><use transform="matrix(0.05,0,0,0.05,13.949999999999998,0)" xlink:href="#aZ"/><use transform="matrix(0.05,0,0,0.05,18.95,0)" xlink:href="#ba"/><use transform="matrix(0.05,0,0,0.05,28.950000000000003,0)" xlink:href="#bb"/><use transform="matrix(0.05,0,0,0.05,38.95,0)" xlink:href="#ba"/><use transform="matrix(0.05,0,0,0.05,48.95,0)" xlink:href="#bc"/></g><g id="q"><use transform="matrix(0.05,0,0,0.05,0,0)" xlink:href="#aM"/><use transform="matrix(0.05,0,0,0.05,10,0)" xlink:href="#aN"/><use transform="matrix(0.05,0,0,0.05,15.949999999999998,0)" xlink:href="#aO"/><use transform="matrix(0.05,0,0,0.05,25.950000000000003,0)" xlink:href="#aP"/></g><path fill="#333" d="M44-68c0 29 11 47 38 47 30 0 42-19 51-41l28 9C148-21 126 4 82 4 31 4 10-29 12-85c3-77 74-140 146-93 12 8 15 23 18 40l-31 5c-1-22-13-36-36-36-52 0-65 49-65 101" id="bd"/><path fill="#333" d="M67-158c15-20 31-36 64-36 94 0 33 127 27 194h-32l25-140c3-38-53-32-70-12C52-117 51-51 37 0H6l51-261h31" id="be"/><path fill="#333" d="M165-48c-4 18 1 34 23 27l-3 20c-29 8-62 0-52-35h-2C116-14 99 4 63 4 30 4 8-16 8-49c0-68 71-67 138-67 10-26 0-56-31-54-26 1-42 9-47 31l-32-5c8-67 160-71 144 15-5 28-9 54-15 81zM42-50c3 52 80 24 89-6 7-12 7-24 11-38-47 1-103-4-100 44" id="bf"/><path fill="#333" d="M17-49c1-102 45-165 103-212h30C92-210 49-145 49-46 49 4 63 43 85 75H54C30 43 18 2 17-49" id="bg"/><path fill="#333" d="M123-251c66 0 92 69 53 113C138-94 73-75 39-27h128l-5 27H-2c17-92 123-93 159-163 14-28-1-64-36-62-29 2-46 17-54 41l-30-6c13-36 37-61 86-61" id="bh"/><path fill="#333" d="M16-82c0-90 25-169 113-169 48 0 68 33 68 82C197-79 170 4 84 4 37 4 16-31 16-82zm30 5c0 32 11 55 40 55 69 0 76-79 80-149 2-32-10-55-39-55-69 0-81 81-81 149" id="bi"/><path fill="#333" d="M98-137C97-35 54 29-4 75h-31C23 23 67-41 67-140c0-50-15-89-37-121h31c24 32 36 73 37 124" id="bj"/><g id="r"><use transform="matrix(0.05,0,0,0.05,0,0)" xlink:href="#bd"/><use transform="matrix(0.05,0,0,0.05,9,0)" xlink:href="#be"/><use transform="matrix(0.05,0,0,0.05,19,0)" xlink:href="#bf"/><use transform="matrix(0.05,0,0,0.05,29,0)" xlink:href="#aN"/><use transform="matrix(0.05,0,0,0.05,34.95,0)" xlink:href="#bg"/><use transform="matrix(0.05,0,0,0.05,40.900000000000006,0)" xlink:href="#bh"/><use transform="matrix(0.05,0,0,0.05,50.900000000000006,0)" xlink:href="#bi"/><use transform="matrix(0.05,0,0,0.05,60.900000000000006,0)" xlink:href="#bj"/></g><path fill="#333" d="M248-111c6-24 9-61-24-58-72 9-57 108-77 169h-31l26-142c3-37-50-30-64-10C52-115 50-51 37 0H6l36-190h30c-1 10-6 24-4 32 13-43 101-52 105 5 13-22 29-41 61-41 90 0 28 129 23 194h-31" id="bk"/><path fill="#333" d="M50-231l6-30h32l-6 30H50zM6 0l37-190h31L37 0H6" id="bl"/><path fill="#333" d="M67-158c22-48 132-52 116 29L158 0h-32l25-140c3-38-53-32-70-12C52-117 51-52 38 0H6l36-190h30" id="bm"/><path fill="#333" d="M68-162c25-46 127-43 121 31C183-60 169 1 98 4 69 5 53-11 43-31L36 0H5l52-261h31zm88 36c2-27-9-43-34-43-55 0-70 51-70 103 0 29 15 45 43 46 52 0 58-58 61-106" id="bn"/><path fill="#333" d="M198-190L69 30C53 58 25 83-20 72c4-11-1-27 19-22 33-1 43-29 59-52L20-190h32L79-34l84-156h35" id="bo"/><g id="s"><use transform="matrix(0.05,0,0,0.05,0,0)" xlink:href="#bf"/><use transform="matrix(0.05,0,0,0.05,10,0)" xlink:href="#aM"/><use transform="matrix(0.05,0,0,0.05,20,0)" xlink:href="#bk"/><use transform="matrix(0.05,0,0,0.05,34.95,0)" xlink:href="#bl"/><use transform="matrix(0.05,0,0,0.05,38.900000000000006,0)" xlink:href="#bm"/><use transform="matrix(0.05,0,0,0.05,48.900000000000006,0)" xlink:href="#aQ"/><use transform="matrix(0.05,0,0,0.05,58.900000000000006,0)" xlink:href="#bn"/><use transform="matrix(0.05,0,0,0.05,68.9,0)" xlink:href="#bo"/></g><path fill="#333" d="M9 0l6-27h63l36-188-63 39 6-31 66-41h29L110-27h60l-5 27H9" id="bp"/><g id="t"><use transform="matrix(0.05,0,0,0.05,0,0)" xlink:href="#bd"/><use transform="matrix(0.05,0,0,0.05,9,0)" xlink:href="#be"/><use transform="matrix(0.05,0,0,0.05,19,0)" xlink:href="#bf"/><use transform="matrix(0.05,0,0,0.05,29,0)" xlink:href="#aN"/><use transform="matrix(0.05,0,0,0.05,34.95,0)" xlink:href="#bg"/><use transform="matrix(0.05,0,0,0.05,40.900000000000006,0)" xlink:href="#bp"/><use transform="matrix(0.05,0,0,0.05,50.900000000000006,0)" xlink:href="#bi"/><use transform="matrix(0.05,0,0,0.05,60.900000000000006,0)" xlink:href="#bj"/></g><path fill="#333" d="M30-147c31-64 166-65 159 27C183-49 158 1 86 4 9 8 1-88 30-147zM88-20c53 0 68-48 68-100 0-31-11-51-44-50-52 1-68 46-68 97 0 32 13 53 44 53" id="bq"/><path fill="#333" d="M111-194c62-3 86 47 72 106H45c-7 38 6 69 45 68 27-1 43-14 53-32l24 11C152-15 129 4 87 4 38 3 12-23 12-71c0-70 32-119 99-123zm44 81c14-66-71-72-95-28-4 8-8 17-11 28h106" id="br"/><g id="u"><use transform="matrix(0.05,0,0,0.05,0,0)" xlink:href="#aN"/><use transform="matrix(0.05,0,0,0.05,5.95,0)" xlink:href="#bq"/><use transform="matrix(0.05,0,0,0.05,15.949999999999998,0)" xlink:href="#aO"/><use transform="matrix(0.05,0,0,0.05,25.950000000000003,0)" xlink:href="#aR"/><use transform="matrix(0.05,0,0,0.05,30.950000000000003,0)" xlink:href="#br"/></g><path fill="#333" d="M151-85c6-55-69-56-94-29H26l34-134h141l-5 27H84l-20 79c41-34 127-11 121 53C199 13 30 38 8-54l29-8C52 0 159-13 151-85" id="bs"/><g id="v"><use transform="matrix(0.05,0,0,0.05,0,0)" xlink:href="#bd"/><use transform="matrix(0.05,0,0,0.05,9,0)" xlink:href="#be"/><use transform="matrix(0.05,0,0,0.05,19,0)" xlink:href="#bf"/><use transform="matrix(0.05,0,0,0.05,29,0)" xlink:href="#aN"/><use transform="matrix(0.05,0,0,0.05,34.95,0)" xlink:href="#bg"/><use transform="matrix(0.05,0,0,0.05,40.900000000000006,0)" xlink:href="#bp"/><use transform="matrix(0.05,0,0,0.05,50.900000000000006,0)" xlink:href="#bs"/><use transform="matrix(0.05,0,0,0.05,60.900000000000006,0)" xlink:href="#bj"/></g><path fill="#333" d="M55-144c13 50 104 24 104 88C159 21 15 23 1-39l26-10c6 40 102 42 102-4-13-50-104-23-104-87 0-71 143-71 148-8l-29 4c-5-35-85-37-89 0" id="bt"/><path fill="#333" d="M76-167L44 0H12l33-167H18l4-23h27c3-47 25-81 82-69l-4 24c-35-8-44 15-46 45h37l-5 23H76" id="bu"/><g id="w"><use transform="matrix(0.05,0,0,0.05,0,0)" xlink:href="#aM"/><use transform="matrix(0.05,0,0,0.05,10,0)" xlink:href="#bq"/><use transform="matrix(0.05,0,0,0.05,20,0)" xlink:href="#bt"/><use transform="matrix(0.05,0,0,0.05,29,0)" xlink:href="#bf"/><use transform="matrix(0.05,0,0,0.05,39,0)" xlink:href="#aP"/><use transform="matrix(0.05,0,0,0.05,49,0)" xlink:href="#br"/><use transform="matrix(0.05,0,0,0.05,59,0)" xlink:href="#aQ"/><use transform="matrix(0.05,0,0,0.05,69,0)" xlink:href="#bu"/><use transform="matrix(0.05,0,0,0.05,74,0)" xlink:href="#bq"/><use transform="matrix(0.05,0,0,0.05,84,0)" xlink:href="#aN"/><use transform="matrix(0.05,0,0,0.05,89.95,0)" xlink:href="#bk"/></g><path fill="#333" d="M67-162c32-53 139-36 121 50C175-51 163 2 97 4 68 4 52-11 42-31 38 6 28 39 22 75H-9l50-265h29c-1 10 0 20-3 28zm89 36c0-26-10-43-35-43-54 0-67 50-69 103-1 29 14 45 42 46 53 0 62-58 62-106" id="bv"/><g id="x"><use transform="matrix(0.05,0,0,0.05,0,0)" xlink:href="#bn"/><use transform="matrix(0.05,0,0,0.05,10,0)" xlink:href="#aN"/><use transform="matrix(0.05,0,0,0.05,15.949999999999998,0)" xlink:href="#br"/><use transform="matrix(0.05,0,0,0.05,25.950000000000003,0)" xlink:href="#br"/><use transform="matrix(0.05,0,0,0.05,35.95,0)" xlink:href="#aM"/><use transform="matrix(0.05,0,0,0.05,45.95,0)" xlink:href="#aQ"/><use transform="matrix(0.05,0,0,0.05,55.95,0)" xlink:href="#bt"/><use transform="matrix(0.05,0,0,0.05,64.95,0)" xlink:href="#bv"/><use transform="matrix(0.05,0,0,0.05,74.95,0)" xlink:href="#br"/><use transform="matrix(0.05,0,0,0.05,84.95,0)" xlink:href="#bd"/><use transform="matrix(0.05,0,0,0.05,93.95,0)" xlink:href="#bt"/></g><g id="y"><use transform="matrix(0.05,0,0,0.05,0,0)" xlink:href="#bn"/><use transform="matrix(0.05,0,0,0.05,10,0)" xlink:href="#aN"/><use transform="matrix(0.05,0,0,0.05,15.949999999999998,0)" xlink:href="#br"/><use transform="matrix(0.05,0,0,0.05,25.950000000000003,0)" xlink:href="#br"/><use transform="matrix(0.05,0,0,0.05,35.95,0)" xlink:href="#aM"/><use transform="matrix(0.05,0,0,0.05,45.95,0)" xlink:href="#aQ"/><use transform="matrix(0.05,0,0,0.05,55.95,0)" xlink:href="#bt"/><use transform="matrix(0.05,0,0,0.05,64.95,0)" xlink:href="#bv"/><use transform="matrix(0.05,0,0,0.05,74.95,0)" xlink:href="#br"/><use transform="matrix(0.05,0,0,0.05,84.95,0)" xlink:href="#bd"/><use transform="matrix(0.05,0,0,0.05,93.95,0)" xlink:href="#bt"/><use transform="matrix(0.05,0,0,0.05,102.95,0)" xlink:href="#aQ"/><use transform="matrix(0.05,0,0,0.05,112.95,0)" xlink:href="#aS"/><use transform="matrix(0.05,0,0,0.05,117.95,0)" xlink:href="#aT"/></g><path fill="#333" d="M238-179c0 84-86 86-175 82L45 0H11l48-248c82 0 179-12 179 69zm-34 1c0-53-64-42-116-43l-19 98c63 0 135 9 135-55" id="bw"/><path fill="#333" d="M180 0L97-118 63-96 45 0H11l48-248h34L69-126c44-43 94-81 141-122h43L121-137 219 0h-39" id="bx"/><g id="z"><use transform="matrix(0.05,0,0,0.05,0,0)" xlink:href="#bw"/><use transform="matrix(0.05,0,0,0.05,12,0)" xlink:href="#bx"/></g><path fill="#333" d="M18-82l6-28h88l-6 28H18" id="by"/><use transform="matrix(0.05,0,0,0.05,0,0)" xlink:href="#by" id="A"/><g id="B"><use transform="matrix(0.05,0,0,0.05,0,0)" xlink:href="#bl"/><use transform="matrix(0.05,0,0,0.05,3.95,0)" xlink:href="#bm"/><use transform="matrix(0.05,0,0,0.05,13.949999999999998,0)" xlink:href="#aR"/><use transform="matrix(0.05,0,0,0.05,18.95,0)" xlink:href="#br"/><use transform="matrix(0.05,0,0,0.05,28.950000000000003,0)" xlink:href="#aP"/><use transform="matrix(0.05,0,0,0.05,38.95,0)" xlink:href="#br"/><use transform="matrix(0.05,0,0,0.05,48.95,0)" xlink:href="#aN"/></g><path d="M133-28C103 26-5 8 13-77c13-62 24-115 90-117 29-1 46 15 56 35l19-102h32L160 0h-30zM45-64c-2 27 10 43 35 43 54-1 69-50 69-103 0-29-15-46-42-46-53-1-58 58-62 106" id="bz"/><g id="C"><use transform="matrix(0.05,0,0,0.05,0,0)" xlink:href="#bb"/><use transform="matrix(0.05,0,0,0.05,10,0)" xlink:href="#ba"/><use transform="matrix(0.05,0,0,0.05,20,0)" xlink:href="#aY"/><use transform="matrix(0.05,0,0,0.05,30,0)" xlink:href="#bz"/><use transform="matrix(0.05,0,0,0.05,40,0)" xlink:href="#ba"/><use transform="matrix(0.05,0,0,0.05,50,0)" xlink:href="#bc"/></g><path d="M165-48c-4 18 1 34 23 27l-3 20c-29 8-62 0-52-35h-2C116-14 99 4 63 4 30 4 8-16 8-49c0-68 71-67 138-67 10-26 0-56-31-54-26 1-42 9-47 31l-32-5c8-67 160-71 144 15-5 28-9 54-15 81zM42-50c3 52 80 24 89-6 7-12 7-24 11-38-47 1-103-4-100 44" id="bA"/><g id="D"><use transform="matrix(0.05,0,0,0.05,0,0)" xlink:href="#bA"/><use transform="matrix(0.05,0,0,0.05,10,0)" xlink:href="#bb"/><use transform="matrix(0.05,0,0,0.05,20,0)" xlink:href="#ba"/></g><g id="E"><use transform="matrix(0.05,0,0,0.05,0,0)" xlink:href="#aX"/><use transform="matrix(0.05,0,0,0.05,3.95,0)" xlink:href="#aY"/><use transform="matrix(0.05,0,0,0.05,13.949999999999998,0)" xlink:href="#aZ"/><use transform="matrix(0.05,0,0,0.05,18.95,0)" xlink:href="#ba"/><use transform="matrix(0.05,0,0,0.05,28.950000000000003,0)" xlink:href="#bb"/><use transform="matrix(0.05,0,0,0.05,38.95,0)" xlink:href="#ba"/><use transform="matrix(0.05,0,0,0.05,48.95,0)" xlink:href="#bc"/></g><path d="M188 0h-37l-8-164L71 0H34L18-190h31l8 164 75-164h34l8 164 74-164h31" id="bB"/><path d="M67-158c15-20 31-36 64-36 94 0 33 127 27 194h-32l25-140c3-38-53-32-70-12C52-117 51-51 37 0H6l51-261h31" id="bC"/><g id="F"><use transform="matrix(0.05,0,0,0.05,0,0)" xlink:href="#bB"/><use transform="matrix(0.05,0,0,0.05,12.950000000000001,0)" xlink:href="#ba"/><use transform="matrix(0.05,0,0,0.05,22.950000000000003,0)" xlink:href="#aX"/><use transform="matrix(0.05,0,0,0.05,26.900000000000002,0)" xlink:href="#bb"/><use transform="matrix(0.05,0,0,0.05,36.900000000000006,0)" xlink:href="#bC"/><use transform="matrix(0.05,0,0,0.05,46.900000000000006,0)" xlink:href="#aZ"/></g><g id="G"><use transform="matrix(0.05,0,0,0.05,0,0)" xlink:href="#aX"/><use transform="matrix(0.05,0,0,0.05,3.95,0)" xlink:href="#aY"/><use transform="matrix(0.05,0,0,0.05,13.949999999999998,0)" xlink:href="#aZ"/><use transform="matrix(0.05,0,0,0.05,18.95,0)" xlink:href="#ba"/><use transform="matrix(0.05,0,0,0.05,28.950000000000003,0)" xlink:href="#bb"/><use transform="matrix(0.05,0,0,0.05,38.95,0)" xlink:href="#ba"/><use transform="matrix(0.05,0,0,0.05,48.95,0)" xlink:href="#bc"/></g><path d="M68-162c25-46 127-43 121 31C183-60 169 1 98 4 69 5 53-11 43-31L36 0H5l52-261h31zm88 36c2-27-9-43-34-43-55 0-70 51-70 103 0 29 15 45 43 46 52 0 58-58 61-106" id="bD"/><path d="M-28 44V31h207v13H-28" id="bE"/><g id="H"><use transform="matrix(0.05,0,0,0.05,0,0)" xlink:href="#bD"/><use transform="matrix(0.05,0,0,0.05,10,0)" xlink:href="#bc"/><use transform="matrix(0.05,0,0,0.05,15.949999999999998,0)" xlink:href="#ba"/><use transform="matrix(0.05,0,0,0.05,25.950000000000003,0)" xlink:href="#ba"/><use transform="matrix(0.05,0,0,0.05,35.95,0)" xlink:href="#bz"/><use transform="matrix(0.05,0,0,0.05,45.95,0)" xlink:href="#bE"/><use transform="matrix(0.05,0,0,0.05,55.95,0)" xlink:href="#aX"/><use transform="matrix(0.05,0,0,0.05,59.900000000000006,0)" xlink:href="#bz"/></g><path d="M87-220l-18 92h140l-5 28H64L45 0H11l48-248h178l-5 28H87" id="bF"/><g id="I"><use transform="matrix(0.05,0,0,0.05,0,0)" xlink:href="#bF"/><use transform="matrix(0.05,0,0,0.05,10.950000000000001,0)" xlink:href="#aV"/></g><use transform="matrix(0.05,0,0,0.05,0,0)" xlink:href="#aW" id="J"/><g id="K"><use transform="matrix(0.05,0,0,0.05,0,0)" xlink:href="#aX"/><use transform="matrix(0.05,0,0,0.05,3.95,0)" xlink:href="#aY"/><use transform="matrix(0.05,0,0,0.05,13.949999999999998,0)" xlink:href="#aZ"/><use transform="matrix(0.05,0,0,0.05,18.95,0)" xlink:href="#ba"/><use transform="matrix(0.05,0,0,0.05,28.950000000000003,0)" xlink:href="#bb"/><use transform="matrix(0.05,0,0,0.05,38.95,0)" xlink:href="#ba"/><use transform="matrix(0.05,0,0,0.05,48.95,0)" xlink:href="#bc"/></g><g id="L"><use transform="matrix(0.05,0,0,0.05,0,0)" xlink:href="#bn"/><use transform="matrix(0.05,0,0,0.05,10,0)" xlink:href="#aN"/><use transform="matrix(0.05,0,0,0.05,15.949999999999998,0)" xlink:href="#br"/><use transform="matrix(0.05,0,0,0.05,25.950000000000003,0)" xlink:href="#br"/><use transform="matrix(0.05,0,0,0.05,35.95,0)" xlink:href="#aM"/><use transform="matrix(0.05,0,0,0.05,45.95,0)" xlink:href="#aQ"/><use transform="matrix(0.05,0,0,0.05,55.95,0)" xlink:href="#aR"/><use transform="matrix(0.05,0,0,0.05,60.95,0)" xlink:href="#bo"/><use transform="matrix(0.05,0,0,0.05,69.95,0)" xlink:href="#bv"/><use transform="matrix(0.05,0,0,0.05,79.95,0)" xlink:href="#br"/></g><g id="M"><use transform="matrix(0.05,0,0,0.05,0,0)" xlink:href="#bn"/><use transform="matrix(0.05,0,0,0.05,10,0)" xlink:href="#aN"/><use transform="matrix(0.05,0,0,0.05,15.949999999999998,0)" xlink:href="#br"/><use transform="matrix(0.05,0,0,0.05,25.950000000000003,0)" xlink:href="#br"/><use transform="matrix(0.05,0,0,0.05,35.95,0)" xlink:href="#aM"/><use transform="matrix(0.05,0,0,0.05,45.95,0)" xlink:href="#aQ"/><use transform="matrix(0.05,0,0,0.05,55.95,0)" xlink:href="#aS"/><use transform="matrix(0.05,0,0,0.05,60.95,0)" xlink:href="#aT"/></g><g id="N"><use transform="matrix(0.05,0,0,0.05,0,0)" xlink:href="#bw"/><use transform="matrix(0.05,0,0,0.05,12,0)" xlink:href="#bx"/></g><use transform="matrix(0.05,0,0,0.05,0,0)" xlink:href="#by" id="O"/><g id="P"><use transform="matrix(0.05,0,0,0.05,0,0)" xlink:href="#bl"/><use transform="matrix(0.05,0,0,0.05,3.95,0)" xlink:href="#bm"/><use transform="matrix(0.05,0,0,0.05,13.949999999999998,0)" xlink:href="#aR"/><use transform="matrix(0.05,0,0,0.05,18.95,0)" xlink:href="#br"/><use transform="matrix(0.05,0,0,0.05,28.950000000000003,0)" xlink:href="#aP"/><use transform="matrix(0.05,0,0,0.05,38.95,0)" xlink:href="#br"/><use transform="matrix(0.05,0,0,0.05,48.95,0)" xlink:href="#aN"/></g><g id="Q"><use transform="matrix(0.05,0,0,0.05,0,0)" xlink:href="#bn"/><use transform="matrix(0.05,0,0,0.05,10,0)" xlink:href="#aN"/><use transform="matrix(0.05,0,0,0.05,15.949999999999998,0)" xlink:href="#br"/><use transform="matrix(0.05,0,0,0.05,25.950000000000003,0)" xlink:href="#br"/><use transform="matrix(0.05,0,0,0.05,35.95,0)" xlink:href="#aM"/></g><path fill="#333" d="M148-71c0-36-31-44-71-41l5-28c46 3 81-6 81-50 0-23-15-35-39-35-30 0-49 17-56 41l-32-3c12-39 42-63 90-64 43 0 69 19 71 60 1 43-30 58-65 66 27 5 49 22 49 53 0 85-133 99-164 35-4-7-7-15-9-22l29-9c8 25 25 45 58 45 34 1 53-17 53-48" id="bG"/><g id="R"><use transform="matrix(0.05,0,0,0.05,0,0)" xlink:href="#bd"/><use transform="matrix(0.05,0,0,0.05,9,0)" xlink:href="#be"/><use transform="matrix(0.05,0,0,0.05,19,0)" xlink:href="#bf"/><use transform="matrix(0.05,0,0,0.05,29,0)" xlink:href="#aN"/><use transform="matrix(0.05,0,0,0.05,34.95,0)" xlink:href="#bg"/><use transform="matrix(0.05,0,0,0.05,40.900000000000006,0)" xlink:href="#bG"/><use transform="matrix(0.05,0,0,0.05,50.900000000000006,0)" xlink:href="#bi"/><use transform="matrix(0.05,0,0,0.05,60.900000000000006,0)" xlink:href="#bj"/></g><g id="S"><use transform="matrix(0.05,0,0,0.05,0,0)" xlink:href="#aN"/><use transform="matrix(0.05,0,0,0.05,5.95,0)" xlink:href="#br"/><use transform="matrix(0.05,0,0,0.05,15.949999999999998,0)" xlink:href="#bf"/><use transform="matrix(0.05,0,0,0.05,25.950000000000003,0)" xlink:href="#bd"/><use transform="matrix(0.05,0,0,0.05,34.95,0)" xlink:href="#aR"/></g><g id="T"><use transform="matrix(0.05,0,0,0.05,0,0)" xlink:href="#aN"/><use transform="matrix(0.05,0,0,0.05,5.95,0)" xlink:href="#br"/><use transform="matrix(0.05,0,0,0.05,15.949999999999998,0)" xlink:href="#bf"/><use transform="matrix(0.05,0,0,0.05,25.950000000000003,0)" xlink:href="#bd"/><use transform="matrix(0.05,0,0,0.05,34.95,0)" xlink:href="#aR"/><use transform="matrix(0.05,0,0,0.05,39.95,0)" xlink:href="#aQ"/><use transform="matrix(0.05,0,0,0.05,49.95,0)" xlink:href="#aS"/><use transform="matrix(0.05,0,0,0.05,54.95,0)" xlink:href="#aT"/></g><g id="U"><use transform="matrix(0.05,0,0,0.05,0,0)" xlink:href="#aU"/><use transform="matrix(0.05,0,0,0.05,12,0)" xlink:href="#aV"/></g><g id="V"><use transform="matrix(0.05,0,0,0.05,0,0)" xlink:href="#aN"/><use transform="matrix(0.05,0,0,0.05,5.95,0)" xlink:href="#br"/><use transform="matrix(0.05,0,0,0.05,15.949999999999998,0)" xlink:href="#bf"/><use transform="matrix(0.05,0,0,0.05,25.950000000000003,0)" xlink:href="#bd"/><use transform="matrix(0.05,0,0,0.05,34.95,0)" xlink:href="#aR"/><use transform="matrix(0.05,0,0,0.05,39.95,0)" xlink:href="#aQ"/><use transform="matrix(0.05,0,0,0.05,49.95,0)" xlink:href="#aR"/><use transform="matrix(0.05,0,0,0.05,54.95,0)" xlink:href="#br"/><use transform="matrix(0.05,0,0,0.05,64.95,0)" xlink:href="#aN"/><use transform="matrix(0.05,0,0,0.05,70.9,0)" xlink:href="#bk"/><use transform="matrix(0.05,0,0,0.05,85.85000000000001,0)" xlink:href="#aQ"/><use transform="matrix(0.05,0,0,0.05,95.85000000000001,0)" xlink:href="#bm"/><use transform="matrix(0.05,0,0,0.05,105.85000000000001,0)" xlink:href="#bf"/><use transform="matrix(0.05,0,0,0.05,115.85000000000001,0)" xlink:href="#bk"/><use transform="matrix(0.05,0,0,0.05,130.8,0)" xlink:href="#br"/></g><g id="W"><use transform="matrix(0.05,0,0,0.05,0,0)" xlink:href="#bq"/><use transform="matrix(0.05,0,0,0.05,10,0)" xlink:href="#aO"/><use transform="matrix(0.05,0,0,0.05,20,0)" xlink:href="#aR"/><use transform="matrix(0.05,0,0,0.05,25,0)" xlink:href="#bd"/><use transform="matrix(0.05,0,0,0.05,34,0)" xlink:href="#bq"/><use transform="matrix(0.05,0,0,0.05,44,0)" xlink:href="#bk"/><use transform="matrix(0.05,0,0,0.05,58.95,0)" xlink:href="#br"/></g><path fill="#333" d="M124 0L87-78 21 0h-35l86-98-46-92h33l34 74 61-74h37l-83 92 50 98h-34" id="bH"/><g id="X"><use transform="matrix(0.05,0,0,0.05,0,0)" xlink:href="#aO"/><use transform="matrix(0.05,0,0,0.05,10,0)" xlink:href="#bv"/><use transform="matrix(0.05,0,0,0.05,20,0)" xlink:href="#aM"/><use transform="matrix(0.05,0,0,0.05,30,0)" xlink:href="#bf"/><use transform="matrix(0.05,0,0,0.05,40,0)" xlink:href="#aR"/><use transform="matrix(0.05,0,0,0.05,45,0)" xlink:href="#br"/><use transform="matrix(0.05,0,0,0.05,55,0)" xlink:href="#aM"/><use transform="matrix(0.05,0,0,0.05,65,0)" xlink:href="#aQ"/><use transform="matrix(0.05,0,0,0.05,75,0)" xlink:href="#bu"/><use transform="matrix(0.05,0,0,0.05,80,0)" xlink:href="#bl"/><use transform="matrix(0.05,0,0,0.05,83.95,0)" xlink:href="#aN"/><use transform="matrix(0.05,0,0,0.05,89.9,0)" xlink:href="#bt"/><use transform="matrix(0.05,0,0,0.05,98.9,0)" xlink:href="#aR"/><use transform="matrix(0.05,0,0,0.05,103.9,0)" xlink:href="#aQ"/><use transform="matrix(0.05,0,0,0.05,113.9,0)" xlink:href="#br"/><use transform="matrix(0.05,0,0,0.05,123.9,0)" xlink:href="#bH"/><use transform="matrix(0.05,0,0,0.05,132.9,0)" xlink:href="#bv"/></g><g id="Y"><use transform="matrix(0.05,0,0,0.05,0,0)" xlink:href="#aM"/><use transform="matrix(0.05,0,0,0.05,10,0)" xlink:href="#bf"/><use transform="matrix(0.05,0,0,0.05,20,0)" xlink:href="#aR"/><use transform="matrix(0.05,0,0,0.05,25,0)" xlink:href="#br"/></g><path fill="#333" d="M6 0l50-261h32L37 0H6" id="bI"/><g id="Z"><use transform="matrix(0.05,0,0,0.05,0,0)" xlink:href="#aO"/><use transform="matrix(0.05,0,0,0.05,10,0)" xlink:href="#bv"/><use transform="matrix(0.05,0,0,0.05,20,0)" xlink:href="#aM"/><use transform="matrix(0.05,0,0,0.05,30,0)" xlink:href="#bf"/><use transform="matrix(0.05,0,0,0.05,40,0)" xlink:href="#aR"/><use transform="matrix(0.05,0,0,0.05,45,0)" xlink:href="#br"/><use transform="matrix(0.05,0,0,0.05,55,0)" xlink:href="#aM"/><use transform="matrix(0.05,0,0,0.05,65,0)" xlink:href="#aQ"/><use transform="matrix(0.05,0,0,0.05,75,0)" xlink:href="#bI"/><use transform="matrix(0.05,0,0,0.05,78.95,0)" xlink:href="#bf"/><use transform="matrix(0.05,0,0,0.05,88.95,0)" xlink:href="#bt"/><use transform="matrix(0.05,0,0,0.05,97.95,0)" xlink:href="#aR"/><use transform="matrix(0.05,0,0,0.05,102.95,0)" xlink:href="#aQ"/><use transform="matrix(0.05,0,0,0.05,112.95,0)" xlink:href="#br"/><use transform="matrix(0.05,0,0,0.05,122.95,0)" xlink:href="#bH"/><use transform="matrix(0.05,0,0,0.05,131.95,0)" xlink:href="#bv"/></g><g id="aa"><use transform="matrix(0.05,0,0,0.05,0,0)" xlink:href="#bn"/><use transform="matrix(0.05,0,0,0.05,10,0)" xlink:href="#aN"/><use transform="matrix(0.05,0,0,0.05,15.949999999999998,0)" xlink:href="#br"/><use transform="matrix(0.05,0,0,0.05,25.950000000000003,0)" xlink:href="#br"/><use transform="matrix(0.05,0,0,0.05,35.95,0)" xlink:href="#aM"/><use transform="matrix(0.05,0,0,0.05,45.95,0)" xlink:href="#aQ"/><use transform="matrix(0.05,0,0,0.05,55.95,0)" xlink:href="#aM"/><use transform="matrix(0.05,0,0,0.05,65.95,0)" xlink:href="#aN"/><use transform="matrix(0.05,0,0,0.05,71.9,0)" xlink:href="#aO"/><use transform="matrix(0.05,0,0,0.05,81.9,0)" xlink:href="#aP"/></g><g id="ab"><use transform="matrix(0.05,0,0,0.05,0,0)" xlink:href="#bn"/><use transform="matrix(0.05,0,0,0.05,10,0)" xlink:href="#aQ"/><use transform="matrix(0.05,0,0,0.05,20,0)" xlink:href="#aM"/><use transform="matrix(0.05,0,0,0.05,30,0)" xlink:href="#aN"/><use transform="matrix(0.05,0,0,0.05,35.95,0)" xlink:href="#aO"/><use transform="matrix(0.05,0,0,0.05,45.95,0)" xlink:href="#aP"/><use transform="matrix(0.05,0,0,0.05,55.95,0)" xlink:href="#aQ"/><use transform="matrix(0.05,0,0,0.05,65.95,0)" xlink:href="#aS"/><use transform="matrix(0.05,0,0,0.05,70.95,0)" xlink:href="#aT"/></g><path fill="#333" d="M87-220l-18 92h140l-5 28H64L45 0H11l48-248h178l-5 28H87" id="bJ"/><g id="ac"><use transform="matrix(0.05,0,0,0.05,0,0)" xlink:href="#bJ"/><use transform="matrix(0.05,0,0,0.05,10.950000000000001,0)" xlink:href="#bx"/></g><path d="M67 3c-93-2-31-127-26-193h32L48-50c-3 39 53 32 70 12 30-34 30-101 43-152h32L157 0h-30c1-10 6-24 4-33-14 20-29 37-64 36" id="bK"/><path d="M14 0l48-248h34L48 0H14" id="bL"/><path d="M248-139C247-14 144 9 11 0l48-248c105-6 190 8 189 109zm-34 0c1-70-52-87-126-82L50-27c98 7 163-21 164-112" id="bM"/><g id="ad"><use transform="matrix(0.05,0,0,0.05,0,0)" xlink:href="#bz"/><use transform="matrix(0.05,0,0,0.05,10,0)" xlink:href="#bc"/><use transform="matrix(0.05,0,0,0.05,15.949999999999998,0)" xlink:href="#bK"/><use transform="matrix(0.05,0,0,0.05,25.950000000000003,0)" xlink:href="#bb"/><use transform="matrix(0.05,0,0,0.05,35.95,0)" xlink:href="#bE"/><use transform="matrix(0.05,0,0,0.05,45.95,0)" xlink:href="#bL"/><use transform="matrix(0.05,0,0,0.05,50.95,0)" xlink:href="#bM"/></g><g id="ae"><use transform="matrix(0.05,0,0,0.05,0,0)" xlink:href="#aM"/><use transform="matrix(0.05,0,0,0.05,10,0)" xlink:href="#aN"/><use transform="matrix(0.05,0,0,0.05,15.949999999999998,0)" xlink:href="#aO"/><use transform="matrix(0.05,0,0,0.05,25.950000000000003,0)" xlink:href="#aP"/><use transform="matrix(0.05,0,0,0.05,35.95,0)" xlink:href="#aQ"/><use transform="matrix(0.05,0,0,0.05,45.95,0)" xlink:href="#aN"/><use transform="matrix(0.05,0,0,0.05,51.900000000000006,0)" xlink:href="#br"/><use transform="matrix(0.05,0,0,0.05,61.900000000000006,0)" xlink:href="#bf"/><use transform="matrix(0.05,0,0,0.05,71.9,0)" xlink:href="#bd"/><use transform="matrix(0.05,0,0,0.05,80.9,0)" xlink:href="#aR"/></g><g id="af"><use transform="matrix(0.05,0,0,0.05,0,0)" xlink:href="#aM"/><use transform="matrix(0.05,0,0,0.05,10,0)" xlink:href="#aQ"/><use transform="matrix(0.05,0,0,0.05,20,0)" xlink:href="#aN"/><use transform="matrix(0.05,0,0,0.05,25.950000000000003,0)" xlink:href="#br"/><use transform="matrix(0.05,0,0,0.05,35.95,0)" xlink:href="#bf"/><use transform="matrix(0.05,0,0,0.05,45.95,0)" xlink:href="#bd"/><use transform="matrix(0.05,0,0,0.05,54.95,0)" xlink:href="#aR"/><use transform="matrix(0.05,0,0,0.05,59.95,0)" xlink:href="#aQ"/><use transform="matrix(0.05,0,0,0.05,69.95,0)" xlink:href="#bl"/><use transform="matrix(0.05,0,0,0.05,73.9,0)" xlink:href="#aM"/></g><g id="ag"><use transform="matrix(0.05,0,0,0.05,0,0)" xlink:href="#aN"/><use transform="matrix(0.05,0,0,0.05,5.95,0)" xlink:href="#br"/><use transform="matrix(0.05,0,0,0.05,15.949999999999998,0)" xlink:href="#bf"/><use transform="matrix(0.05,0,0,0.05,25.950000000000003,0)" xlink:href="#bd"/><use transform="matrix(0.05,0,0,0.05,34.95,0)" xlink:href="#aR"/><use transform="matrix(0.05,0,0,0.05,39.95,0)" xlink:href="#aQ"/><use transform="matrix(0.05,0,0,0.05,49.95,0)" xlink:href="#bl"/><use transform="matrix(0.05,0,0,0.05,53.900000000000006,0)" xlink:href="#aM"/></g><g id="ah"><use transform="matrix(0.05,0,0,0.05,0,0)" xlink:href="#bz"/><use transform="matrix(0.05,0,0,0.05,10,0)" xlink:href="#bc"/><use transform="matrix(0.05,0,0,0.05,15.949999999999998,0)" xlink:href="#bK"/><use transform="matrix(0.05,0,0,0.05,25.950000000000003,0)" xlink:href="#bb"/><use transform="matrix(0.05,0,0,0.05,35.95,0)" xlink:href="#bE"/><use transform="matrix(0.05,0,0,0.05,45.95,0)" xlink:href="#aX"/><use transform="matrix(0.05,0,0,0.05,49.900000000000006,0)" xlink:href="#bz"/></g></defs></g></svg>